<svg id="visual" viewBox="0 0 900 600" width="600" height="400" xmlns="http://www.w3.org/2000/svg" xmlns:xlink="http://www.w3.org/1999/xlink" version="1.1"><rect width="900" height="600" fill="#060c2b"></rect><g><g transform="translate(863 217)"><path d="M51.3 -18.6C57.8 3.1 48.2 28.2 29.7 41.9C11.2 55.6 -16.3 57.9 -34.1 45.4C-51.9 32.8 -59.9 5.4 -52.6 -17.6C-45.3 -40.6 -22.6 -59 -0.1 -59C22.4 -59 44.9 -40.4 51.3 -18.6Z" stroke="#127e11" fill="none" stroke-width="20"></path></g><g transform="translate(105 218)"><path d="M43.3 -14C48.9 3 41.1 24.4 27.2 33.6C13.2 42.9 -6.8 39.9 -21.8 29.2C-36.8 18.5 -46.8 0 -42.3 -15.5C-37.9 -31.1 -18.9 -43.8 0 -43.7C18.9 -43.7 37.8 -31.1 43.3 -14Z" stroke="#127e11" fill="none" stroke-width="20"></path></g><g transform="translate(767 504)"><path d="M57 -20.8C63.4 1.2 50.9 27.1 31.8 40.1C12.7 53.1 -13 53.2 -30.2 40.9C-47.5 28.5 -56.2 3.7 -49.7 -18.4C-43.2 -40.5 -21.6 -59.9 1.8 -60.5C25.3 -61.1 50.5 -42.9 57 -20.8Z" stroke="#127e11" fill="none" stroke-width="20"></path></g><g transform="translate(569 13)"><path d="M37.1 -12.1C42.2 3.5 36.3 22.7 22.9 32.7C9.4 42.8 -11.5 43.7 -24.1 34.3C-36.6 24.9 -40.8 5.2 -35.4 -11C-30 -27.1 -15 -39.5 0.5 -39.7C16 -39.8 32.1 -27.7 37.1 -12.1Z" stroke="#127e11" fill="none" stroke-width="20"></path></g><g transform="translate(380 362)"><path d="M38.6 -12.4C43.3 1.9 35.7 20.3 21.9 30.4C8.1 40.4 -11.9 42.1 -24.4 33.1C-36.9 24.1 -42 4.4 -36.7 -10.7C-31.4 -25.9 -15.7 -36.4 0.6 -36.6C16.9 -36.8 33.9 -26.7 38.6 -12.4Z" stroke="#127e11" fill="none" stroke-width="20"></path></g><g transform="translate(40 596)"><path d="M41 -12.9C46.6 4.1 40.2 25.3 25.5 36.4C10.7 47.4 -12.4 48.2 -28.4 37C-44.4 25.9 -53.3 2.9 -47.3 -14.5C-41.4 -31.9 -20.7 -43.5 -1.5 -43.1C17.7 -42.6 35.3 -29.9 41 -12.9Z" stroke="#127e11" fill="none" stroke-width="20"></path></g><g transform="translate(449 556)"><path d="M55.4 -20.4C61.3 0 48.1 24.1 28.6 37.9C9.1 51.8 -16.9 55.4 -32.5 44.1C-48.1 32.9 -53.4 6.9 -46.3 -15.2C-39.2 -37.3 -19.6 -55.5 2.6 -56.4C24.8 -57.2 49.6 -40.7 55.4 -20.4Z" stroke="#127e11" fill="none" stroke-width="20"></path></g><g transform="translate(648 192)"><path d="M38.2 -12.7C44.1 5.7 39.7 27.1 25.7 37.9C11.7 48.6 -11.9 48.7 -25.3 38.1C-38.8 27.6 -42.2 6.4 -36.3 -12.1C-30.4 -30.5 -15.2 -46.3 0.5 -46.4C16.1 -46.6 32.3 -31.2 38.2 -12.7Z" stroke="#127e11" fill="none" stroke-width="20"></path></g></g></svg>